<svg width="98" height="97" viewBox="0 0 98 97" fill="none" xmlns="http://www.w3.org/2000/svg">
<g clip-path="url(#clip0_910_2100)">
<path d="M48.9412 -0.930847C35.6306 -0.930847 33.9699 -0.881858 28.7475 -0.636908C23.5301 -0.391959 19.9784 0.426173 16.8528 1.64112C13.6195 2.88547 10.8956 4.57072 8.17178 7.28966C5.68068 9.73864 3.75312 12.701 2.52325 15.9707C1.3132 19.0913 0.490169 22.648 0.245219 27.8654C0.0149668 33.0877 -0.0487175 34.7485 -0.0487175 48.059C-0.0487175 61.3696 0.000269778 63.0304 0.245219 68.2527C0.490169 73.4701 1.3132 77.0219 2.52325 80.1474C3.74958 83.4189 5.67761 86.382 8.17178 88.8284C10.6215 91.3187 13.5837 93.2461 16.8528 94.477C19.9735 95.687 23.5301 96.5101 28.7475 96.755C33.9699 96.9853 35.6306 97.0489 48.9412 97.0489C62.2517 97.0489 63.9125 97 69.1348 96.755C74.3522 96.5101 77.904 95.687 81.0296 94.477C84.3005 93.2497 87.2634 91.3218 89.7106 88.8284C92.2022 86.3799 94.1298 83.4174 95.3591 80.1474C96.5741 77.0268 97.3922 73.4701 97.6371 68.2527C97.8674 63.0304 97.9311 61.3696 97.9311 48.059C97.9311 34.7485 97.8821 33.0877 97.6371 27.8654C97.3922 22.6431 96.5741 19.0962 95.3591 15.9707C94.1332 12.699 92.2051 9.73583 89.7106 7.28966C87.2627 4.7972 84.3 2.86944 81.0296 1.64112C77.904 0.426173 74.3571 -0.391959 69.1348 -0.636908C63.9125 -0.867161 62.2517 -0.930847 48.9412 -0.930847ZM48.9412 23.5641C55.4376 23.5641 61.668 26.1448 66.2617 30.7385C70.8554 35.3322 73.4361 41.5626 73.4361 48.059C73.4361 54.5555 70.8554 60.7859 66.2617 65.3796C61.668 69.9733 55.4376 72.554 48.9412 72.554C42.4447 72.554 36.2143 69.9733 31.6206 65.3796C27.0269 60.7859 24.4462 54.5555 24.4462 48.059C24.4462 41.5626 27.0269 35.3322 31.6206 30.7385C36.2143 26.1448 42.4447 23.5641 48.9412 23.5641ZM17.0977 22.3394C17.0977 20.7152 17.7429 19.1576 18.8913 18.0092C20.0398 16.8608 21.5974 16.2156 23.2215 16.2156C24.8456 16.2156 26.4032 16.8608 27.5516 18.0092C28.7 19.1576 29.3452 20.7152 29.3452 22.3394C29.3452 23.9635 28.7 25.5211 27.5516 26.6695C26.4032 27.8179 24.8456 28.4631 23.2215 28.4631C21.5974 28.4631 20.0398 27.8179 18.8913 26.6695C17.7429 25.5211 17.0977 23.9635 17.0977 22.3394ZM48.9412 33.3621C45.0433 33.3621 41.3051 34.9105 38.5489 37.6667C35.7926 40.4229 34.2442 44.1612 34.2442 48.059C34.2442 51.9569 35.7926 55.6952 38.5489 58.4514C41.3051 61.2076 45.0433 62.756 48.9412 62.756C52.8391 62.756 56.5773 61.2076 59.3335 58.4514C62.0897 55.6952 63.6381 51.9569 63.6381 48.059C63.6381 44.1612 62.0897 40.4229 59.3335 37.6667C56.5773 34.9105 52.8391 33.3621 48.9412 33.3621Z" fill="white"/>
</g>
<defs>
<clipPath id="clip0_910_2100">
<rect width="97.8818" height="97" fill="white" transform="matrix(-1 0 0 1 97.8818 0)"/>
</clipPath>
</defs>
</svg>
