<svg width="122" height="97" viewBox="0 0 122 97" fill="none" xmlns="http://www.w3.org/2000/svg">
<path fill-rule="evenodd" clip-rule="evenodd" d="M38.1304 96.9918C83.8808 96.9918 108.905 59.6711 108.905 27.3106C108.905 26.2482 108.905 25.1939 108.832 24.1434C113.7 20.6817 117.901 16.3837 121.241 11.4658C116.707 13.4473 111.888 14.7468 106.959 15.3197C112.148 12.2579 116.034 7.44771 117.895 1.77179C113.009 4.62466 107.668 6.6381 102.097 7.71842C92.6769 -2.14135 76.9216 -2.61906 66.901 6.65578C60.4449 12.6361 57.6987 21.5526 59.7053 30.0575C39.7065 29.0668 21.0717 19.7682 8.4384 4.47131C1.83681 15.6619 5.21338 29.9726 16.1433 37.1585C12.1848 37.0451 8.31109 35.9958 4.84965 34.0979V34.4087C4.85572 46.0649 13.2032 56.1016 24.806 58.4113C21.1445 59.3961 17.3011 59.5389 13.579 58.8286C16.8344 68.8078 26.176 75.6428 36.8149 75.8397C28.0067 82.6556 17.1253 86.3566 5.92264 86.3447C3.94641 86.3387 1.97017 86.2252 0 85.9925C11.3785 93.1784 24.612 96.9919 38.1304 96.9741" fill="white"/>
</svg>
